{
    "accessors": [
        {
            "bufferView": 0,
            "componentType": 5126,
            "count": 32,
            "max": [
                -0.0071000000461936,
                1.0,
                0.0027000000700354576
            ],
            "min": [
                -0.007400000002235174,
                0.0,
                0.002400000113993883
            ],
            "name": "mesh0_coord_accessor",
            "type": "VEC3"
        },
        {
            "bufferView": 1,
            "componentType": 5126,
            "count": 32,
            "max": [
                6.123234262925839e-17,
                -0.0,
                1.0
            ],
            "min": [
                -1.0,
                -0.0,
                1.2246468525851679e-16
            ],
            "name": "mesh0_norm_accessor",
            "type": "VEC3"
        },
        {
            "bufferView": 2,
            "componentType": 5126,
            "count": 32,
            "max": [
                1.0,
                1.0
            ],
            "min": [
                0.0,
                0.0
            ],
            "name": "mesh0_texcoord_accessor",
            "type": "VEC2"
        },
        {
            "bufferView": 3,
            "componentType": 5125,
            "count": 90,
            "max": [
                31
            ],
            "min": [
                0
            ],
            "name": "mesh0_idx_accessor",
            "type": "SCALAR"
        },
        {
            "bufferView": 4,
            "componentType": 5126,
            "count": 4,
            "max": [
                -0.0071000000461936,
                1.0,
                0.005100000184029341
            ],
            "min": [
                -0.0071000000461936,
                0.0,
                0.0027000000700354576
            ],
            "name": "mesh1_coord_accessor",
            "type": "VEC3"
        },
        {
            "bufferView": 5,
            "componentType": 5126,
            "count": 4,
            "max": [
                -1.0,
                -0.0,
                -0.0
            ],
            "min": [
                -1.0,
                -0.0,
                -0.0
            ],
            "name": "mesh1_norm_accessor",
            "type": "VEC3"
        },
        {
            "bufferView": 6,
            "componentType": 5126,
            "count": 4,
            "max": [
                1.0,
                1.0
            ],
            "min": [
                0.0,
                0.0
            ],
            "name": "mesh1_texcoord_accessor",
            "type": "VEC2"
        },
        {
            "bufferView": 7,
            "componentType": 5125,
            "count": 6,
            "max": [
                3
            ],
            "min": [
                0
            ],
            "name": "mesh1_idx_accessor",
            "type": "SCALAR"
        },
        {
            "bufferView": 8,
            "componentType": 5126,
            "count": 4,
            "max": [
                -0.0071000000461936,
                1.0,
                0.005100000184029341
            ],
            "min": [
                -0.007849999703466892,
                0.0,
                0.005100000184029341
            ],
            "name": "mesh2_coord_accessor",
            "type": "VEC3"
        },
        {
            "bufferView": 9,
            "componentType": 5126,
            "count": 4,
            "max": [
                -0.0,
                -0.0,
                -1.0
            ],
            "min": [
                -0.0,
                -0.0,
                -1.0
            ],
            "name": "mesh2_norm_accessor",
            "type": "VEC3"
        },
        {
            "bufferView": 10,
            "componentType": 5126,
            "count": 4,
            "max": [
                1.0,
                1.0
            ],
            "min": [
                0.0,
                0.0
            ],
            "name": "mesh2_texcoord_accessor",
            "type": "VEC2"
        },
        {
            "bufferView": 11,
            "componentType": 5125,
            "count": 6,
            "max": [
                3
            ],
            "min": [
                0
            ],
            "name": "mesh2_idx_accessor",
            "type": "SCALAR"
        },
        {
            "bufferView": 12,
            "componentType": 5126,
            "count": 50,
            "max": [
                -0.007849999703466892,
                1.0,
                0.005654891952872276
            ],
            "min": [
                -0.008149689063429832,
                0.0,
                0.005100000184029341
            ],
            "name": "mesh3_coord_accessor",
            "type": "VEC3"
        },
        {
            "bufferView": 13,
            "componentType": 5126,
            "count": 50,
            "max": [
                1.1102230246251565e-16,
                0.0,
                0.8496401906013489
            ],
            "min": [
                -0.9989643692970276,
                0.0,
                -1.0
            ],
            "name": "mesh3_norm_accessor",
            "type": "VEC3"
        },
        {
            "bufferView": 14,
            "componentType": 5126,
            "count": 50,
            "max": [
                1.0,
                1.0
            ],
            "min": [
                0.0,
                0.0
            ],
            "name": "mesh3_texcoord_accessor",
            "type": "VEC2"
        },
        {
            "bufferView": 15,
            "componentType": 5125,
            "count": 144,
            "max": [
                49
            ],
            "min": [
                0
            ],
            "name": "mesh3_idx_accessor",
            "type": "SCALAR"
        },
        {
            "bufferView": 16,
            "componentType": 5126,
            "count": 4,
            "max": [
                -0.006558208726346493,
                1.0,
                0.006554891820997
            ],
            "min": [
                -0.008008209057152271,
                0.0,
                0.005654891952872276
            ],
            "name": "mesh4_coord_accessor",
            "type": "VEC3"
        },
        {
            "bufferView": 17,
            "componentType": 5126,
            "count": 4,
            "max": [
                -0.5273628830909729,
                -0.0,
                0.8496401906013489
            ],
            "min": [
                -0.5273628830909729,
                -0.0,
                0.8496401906013489
            ],
            "name": "mesh4_norm_accessor",
            "type": "VEC3"
        },
        {
            "bufferView": 18,
            "componentType": 5126,
            "count": 4,
            "max": [
                1.0,
                1.0
            ],
            "min": [
                0.0,
                0.0
            ],
            "name": "mesh4_texcoord_accessor",
            "type": "VEC2"
        },
        {
            "bufferView": 19,
            "componentType": 5125,
            "count": 6,
            "max": [
                3
            ],
            "min": [
                0
            ],
            "name": "mesh4_idx_accessor",
            "type": "SCALAR"
        },
        {
            "bufferView": 20,
            "componentType": 5126,
            "count": 42,
            "max": [
                -0.006099999882280827,
                1.0,
                0.0065999142825603485
            ],
            "min": [
                -0.006558208726346493,
                0.0,
                0.006300000008195639
            ],
            "name": "mesh5_coord_accessor",
            "type": "VEC3"
        },
        {
            "bufferView": 21,
            "componentType": 5126,
            "count": 42,
            "max": [
                1.0,
                0.0,
                0.9997138977050781
            ],
            "min": [
                -0.5273628830909729,
                0.0,
                -1.2246468525851679e-16
            ],
            "name": "mesh5_norm_accessor",
            "type": "VEC3"
        },
        {
            "bufferView": 22,
            "componentType": 5126,
            "count": 42,
            "max": [
                1.0,
                1.0
            ],
            "min": [
                0.0,
                0.0
            ],
            "name": "mesh5_texcoord_accessor",
            "type": "VEC2"
        },
        {
            "bufferView": 23,
            "componentType": 5125,
            "count": 120,
            "max": [
                41
            ],
            "min": [
                0
            ],
            "name": "mesh5_idx_accessor",
            "type": "SCALAR"
        },
        {
            "bufferView": 24,
            "componentType": 5126,
            "count": 4,
            "max": [
                -0.006099999882280827,
                1.0,
                0.006300000008195639
            ],
            "min": [
                -0.006099999882280827,
                0.0,
                0.0027000000700354576
            ],
            "name": "mesh6_coord_accessor",
            "type": "VEC3"
        },
        {
            "bufferView": 25,
            "componentType": 5126,
            "count": 4,
            "max": [
                1.0,
                -0.0,
                -2.4093381022571663e-16
            ],
            "min": [
                1.0,
                -0.0,
                -2.4093381022571663e-16
            ],
            "name": "mesh6_norm_accessor",
            "type": "VEC3"
        },
        {
            "bufferView": 26,
            "componentType": 5126,
            "count": 4,
            "max": [
                1.0,
                1.0
            ],
            "min": [
                0.0,
                0.0
            ],
            "name": "mesh6_texcoord_accessor",
            "type": "VEC2"
        },
        {
            "bufferView": 27,
            "componentType": 5125,
            "count": 6,
            "max": [
                3
            ],
            "min": [
                0
            ],
            "name": "mesh6_idx_accessor",
            "type": "SCALAR"
        },
        {
            "bufferView": 28,
            "componentType": 5126,
            "count": 32,
            "max": [
                -0.005799999926239252,
                1.0,
                0.0027000000700354576
            ],
            "min": [
                -0.006099999882280827,
                0.0,
                0.002400000113993883
            ],
            "name": "mesh7_coord_accessor",
            "type": "VEC3"
        },
        {
            "bufferView": 29,
            "componentType": 5126,
            "count": 32,
            "max": [
                1.0,
                0.0,
                1.0
            ],
            "min": [
                6.123234262925839e-17,
                0.0,
                -0.0
            ],
            "name": "mesh7_norm_accessor",
            "type": "VEC3"
        },
        {
            "bufferView": 30,
            "componentType": 5126,
            "count": 32,
            "max": [
                1.0,
                1.0
            ],
            "min": [
                0.0,
                0.0
            ],
            "name": "mesh7_texcoord_accessor",
            "type": "VEC2"
        },
        {
            "bufferView": 31,
            "componentType": 5125,
            "count": 90,
            "max": [
                31
            ],
            "min": [
                0
            ],
            "name": "mesh7_idx_accessor",
            "type": "SCALAR"
        },
        {
            "bufferView": 32,
            "componentType": 5126,
            "count": 4,
            "max": [
                0.005799999926239252,
                1.0,
                0.002400000113993883
            ],
            "min": [
                -0.005799999926239252,
                0.0,
                0.002400000113993883
            ],
            "name": "mesh8_coord_accessor",
            "type": "VEC3"
        },
        {
            "bufferView": 33,
            "componentType": 5126,
            "count": 4,
            "max": [
                -0.0,
                -0.0,
                1.0
            ],
            "min": [
                -0.0,
                -0.0,
                1.0
            ],
            "name": "mesh8_norm_accessor",
            "type": "VEC3"
        },
        {
            "bufferView": 34,
            "componentType": 5126,
            "count": 4,
            "max": [
                1.0,
                1.0
            ],
            "min": [
                0.0,
                0.0
            ],
            "name": "mesh8_texcoord_accessor",
            "type": "VEC2"
        },
        {
            "bufferView": 35,
            "componentType": 5125,
            "count": 6,
            "max": [
                3
            ],
            "min": [
                0
            ],
            "name": "mesh8_idx_accessor",
            "type": "SCALAR"
        },
        {
            "bufferView": 36,
            "componentType": 5126,
            "count": 32,
            "max": [
                0.006099999882280827,
                1.0,
                0.0027000000700354576
            ],
            "min": [
                0.005799999926239252,
                0.0,
                0.002400000113993883
            ],
            "name": "mesh9_coord_accessor",
            "type": "VEC3"
        },
        {
            "bufferView": 37,
            "componentType": 5126,
            "count": 32,
            "max": [
                6.123234262925839e-17,
                -0.0,
                1.0
            ],
            "min": [
                -1.0,
                -0.0,
                1.2246468525851679e-16
            ],
            "name": "mesh9_norm_accessor",
            "type": "VEC3"
        },
        {
            "bufferView": 38,
            "componentType": 5126,
            "count": 32,
            "max": [
                1.0,
                1.0
            ],
            "min": [
                0.0,
                0.0
            ],
            "name": "mesh9_texcoord_accessor",
            "type": "VEC2"
        },
        {
            "bufferView": 39,
            "componentType": 5125,
            "count": 90,
            "max": [
                31
            ],
            "min": [
                0
            ],
            "name": "mesh9_idx_accessor",
            "type": "SCALAR"
        },
        {
            "bufferView": 40,
            "componentType": 5126,
            "count": 4,
            "max": [
                0.006099999882280827,
                1.0,
                0.006300000008195639
            ],
            "min": [
                0.006099999882280827,
                0.0,
                0.0027000000700354576
            ],
            "name": "mesh10_coord_accessor",
            "type": "VEC3"
        },
        {
            "bufferView": 41,
            "componentType": 5126,
            "count": 4,
            "max": [
                -1.0,
                0.0,
                -2.4093381022571663e-16
            ],
            "min": [
                -1.0,
                0.0,
                -2.4093381022571663e-16
            ],
            "name": "mesh10_norm_accessor",
            "type": "VEC3"
        },
        {
            "bufferView": 42,
            "componentType": 5126,
            "count": 4,
            "max": [
                1.0,
                1.0
            ],
            "min": [
                0.0,
                0.0
            ],
            "name": "mesh10_texcoord_accessor",
            "type": "VEC2"
        },
        {
            "bufferView": 43,
            "componentType": 5125,
            "count": 6,
            "max": [
                3
            ],
            "min": [
                0
            ],
            "name": "mesh10_idx_accessor",
            "type": "SCALAR"
        },
        {
            "bufferView": 44,
            "componentType": 5126,
            "count": 42,
            "max": [
                0.006558208726346493,
                1.0,
                0.0065999142825603485
            ],
            "min": [
                0.006099999882280827,
                0.0,
                0.006300000008195639
            ],
            "name": "mesh11_coord_accessor",
            "type": "VEC3"
        },
        {
            "bufferView": 45,
            "componentType": 5126,
            "count": 42,
            "max": [
                0.5273628830909729,
                0.0,
                0.9997138977050781
            ],
            "min": [
                -1.0,
                0.0,
                2.4492937051703357e-16
            ],
            "name": "mesh11_norm_accessor",
            "type": "VEC3"
        },
        {
            "bufferView": 46,
            "componentType": 5126,
            "count": 42,
            "max": [
                1.0,
                1.0
            ],
            "min": [
                0.0,
                0.0
            ],
            "name": "mesh11_texcoord_accessor",
            "type": "VEC2"
        },
        {
            "bufferView": 47,
            "componentType": 5125,
            "count": 120,
            "max": [
                41
            ],
            "min": [
                0
            ],
            "name": "mesh11_idx_accessor",
            "type": "SCALAR"
        },
        {
            "bufferView": 48,
            "componentType": 5126,
            "count": 8,
            "max": [
                0.008008209057152271,
                1.0,
                0.006554891820997
            ],
            "min": [
                0.006558208726346493,
                0.0,
                0.005654891952872276
            ],
            "name": "mesh12_coord_accessor",
            "type": "VEC3"
        },
        {
            "bufferView": 49,
            "componentType": 5126,
            "count": 8,
            "max": [
                0.5273628830909729,
                0.0,
                0.8496401906013489
            ],
            "min": [
                0.5273628830909729,
                0.0,
                0.8496401906013489
            ],
            "name": "mesh12_norm_accessor",
            "type": "VEC3"
        },
        {
            "bufferView": 50,
            "componentType": 5126,
            "count": 8,
            "max": [
                1.0,
                1.0
            ],
            "min": [
                0.0,
                0.0
            ],
            "name": "mesh12_texcoord_accessor",
            "type": "VEC2"
        },
        {
            "bufferView": 51,
            "componentType": 5125,
            "count": 18,
            "max": [
                7
            ],
            "min": [
                0
            ],
            "name": "mesh12_idx_accessor",
            "type": "SCALAR"
        },
        {
            "bufferView": 52,
            "componentType": 5126,
            "count": 152,
            "max": [
                0.008150000125169754,
                1.0,
                0.005654891952872276
            ],
            "min": [
                0.007849999703466892,
                0.0,
                0.005100000184029341
            ],
            "name": "mesh13_coord_accessor",
            "type": "VEC3"
        },
        {
            "bufferView": 53,
            "componentType": 5126,
            "count": 152,
            "max": [
                1.0,
                -0.0,
                0.8496401906013489
            ],
            "min": [
                -6.123234262925839e-17,
                -0.0,
                -1.0
            ],
            "name": "mesh13_norm_accessor",
            "type": "VEC3"
        },
        {
            "bufferView": 54,
            "componentType": 5126,
            "count": 152,
            "max": [
                1.0,
                1.0
            ],
            "min": [
                0.0,
                0.0
            ],
            "name": "mesh13_texcoord_accessor",
            "type": "VEC2"
        },
        {
            "bufferView": 55,
            "componentType": 5125,
            "count": 726,
            "max": [
                151
            ],
            "min": [
                0
            ],
            "name": "mesh13_idx_accessor",
            "type": "SCALAR"
        },
        {
            "bufferView": 56,
            "componentType": 5126,
            "count": 8,
            "max": [
                0.007849999703466892,
                1.0,
                0.005100000184029341
            ],
            "min": [
                0.0071000000461936,
                0.0,
                0.005100000184029341
            ],
            "name": "mesh14_coord_accessor",
            "type": "VEC3"
        },
        {
            "bufferView": 57,
            "componentType": 5126,
            "count": 8,
            "max": [
                0.0,
                0.0,
                -1.0
            ],
            "min": [
                0.0,
                0.0,
                -1.0
            ],
            "name": "mesh14_norm_accessor",
            "type": "VEC3"
        },
        {
            "bufferView": 58,
            "componentType": 5126,
            "count": 8,
            "max": [
                1.0,
                1.0
            ],
            "min": [
                0.0,
                0.0
            ],
            "name": "mesh14_texcoord_accessor",
            "type": "VEC2"
        },
        {
            "bufferView": 59,
            "componentType": 5125,
            "count": 18,
            "max": [
                7
            ],
            "min": [
                0
            ],
            "name": "mesh14_idx_accessor",
            "type": "SCALAR"
        },
        {
            "bufferView": 60,
            "componentType": 5126,
            "count": 4,
            "max": [
                0.0071000000461936,
                1.0,
                0.005100000184029341
            ],
            "min": [
                0.0071000000461936,
                0.0,
                0.0027000000700354576
            ],
            "name": "mesh15_coord_accessor",
            "type": "VEC3"
        },
        {
            "bufferView": 61,
            "componentType": 5126,
            "count": 4,
            "max": [
                1.0,
                0.0,
                0.0
            ],
            "min": [
                1.0,
                0.0,
                0.0
            ],
            "name": "mesh15_norm_accessor",
            "type": "VEC3"
        },
        {
            "bufferView": 62,
            "componentType": 5126,
            "count": 4,
            "max": [
                1.0,
                1.0
            ],
            "min": [
                0.0,
                0.0
            ],
            "name": "mesh15_texcoord_accessor",
            "type": "VEC2"
        },
        {
            "bufferView": 63,
            "componentType": 5125,
            "count": 6,
            "max": [
                3
            ],
            "min": [
                0
            ],
            "name": "mesh15_idx_accessor",
            "type": "SCALAR"
        },
        {
            "bufferView": 64,
            "componentType": 5126,
            "count": 32,
            "max": [
                0.007400000002235174,
                1.0,
                0.0027000000700354576
            ],
            "min": [
                0.0071000000461936,
                0.0,
                0.002400000113993883
            ],
            "name": "mesh16_coord_accessor",
            "type": "VEC3"
        },
        {
            "bufferView": 65,
            "componentType": 5126,
            "count": 32,
            "max": [
                1.0,
                0.0,
                1.0
            ],
            "min": [
                6.123234262925839e-17,
                0.0,
                -0.0
            ],
            "name": "mesh16_norm_accessor",
            "type": "VEC3"
        },
        {
            "bufferView": 66,
            "componentType": 5126,
            "count": 32,
            "max": [
                1.0,
                1.0
            ],
            "min": [
                0.0,
                0.0
            ],
            "name": "mesh16_texcoord_accessor",
            "type": "VEC2"
        },
        {
            "bufferView": 67,
            "componentType": 5125,
            "count": 90,
            "max": [
                31
            ],
            "min": [
                0
            ],
            "name": "mesh16_idx_accessor",
            "type": "SCALAR"
        },
        {
            "bufferView": 68,
            "componentType": 5126,
            "count": 4,
            "max": [
                0.009449999779462814,
                1.0,
                0.002400000113993883
            ],
            "min": [
                0.007400000002235174,
                0.0,
                0.002400000113993883
            ],
            "name": "mesh17_coord_accessor",
            "type": "VEC3"
        },
        {
            "bufferView": 69,
            "componentType": 5126,
            "count": 4,
            "max": [
                -2.1155164018378384e-16,
                0.0,
                1.0
            ],
            "min": [
                -2.1155164018378384e-16,
                0.0,
                1.0
            ],
            "name": "mesh17_norm_accessor",
            "type": "VEC3"
        },
        {
            "bufferView": 70,
            "componentType": 5126,
            "count": 4,
            "max": [
                1.0,
                1.0
            ],
            "min": [
                0.0,
                0.0
            ],
            "name": "mesh17_texcoord_accessor",
            "type": "VEC2"
        },
        {
            "bufferView": 71,
            "componentType": 5125,
            "count": 6,
            "max": [
                3
            ],
            "min": [
                0
            ],
            "name": "mesh17_idx_accessor",
            "type": "SCALAR"
        },
        {
            "bufferView": 72,
            "componentType": 5126,
            "count": 32,
            "max": [
                0.009750000201165676,
                1.0,
                0.002400000113993883
            ],
            "min": [
                0.009449999779462814,
                0.0,
                0.002099999925121665
            ],
            "name": "mesh18_coord_accessor",
            "type": "VEC3"
        },
        {
            "bufferView": 73,
            "componentType": 5126,
            "count": 32,
            "max": [
                1.0,
                0.0,
                1.0
            ],
            "min": [
                1.8369701465288538e-16,
                0.0,
                -1.2246468525851679e-16
            ],
            "name": "mesh18_norm_accessor",
            "type": "VEC3"
        },
        {
            "bufferView": 74,
            "componentType": 5126,
            "count": 32,
            "max": [
                1.0,
                1.0
            ],
            "min": [
                0.0,
                0.0
            ],
            "name": "mesh18_texcoord_accessor",
            "type": "VEC2"
        },
        {
            "bufferView": 75,
            "componentType": 5125,
            "count": 90,
            "max": [
                31
            ],
            "min": [
                0
            ],
            "name": "mesh18_idx_accessor",
            "type": "SCALAR"
        },
        {
            "bufferView": 76,
            "componentType": 5126,
            "count": 4,
            "max": [
                0.009750000201165676,
                1.0,
                0.002099999925121665
            ],
            "min": [
                0.009750000201165676,
                0.0,
                0.0003000000142492354
            ],
            "name": "mesh19_coord_accessor",
            "type": "VEC3"
        },
        {
            "bufferView": 77,
            "componentType": 5126,
            "count": 4,
            "max": [
                1.0,
                0.0,
                0.0
            ],
            "min": [
                1.0,
                0.0,
                0.0
            ],
            "name": "mesh19_norm_accessor",
            "type": "VEC3"
        },
        {
            "bufferView": 78,
            "componentType": 5126,
            "count": 4,
            "max": [
                1.0,
                1.0
            ],
            "min": [
                0.0,
                0.0
            ],
            "name": "mesh19_texcoord_accessor",
            "type": "VEC2"
        },
        {
            "bufferView": 79,
            "componentType": 5125,
            "count": 6,
            "max": [
                3
            ],
            "min": [
                0
            ],
            "name": "mesh19_idx_accessor",
            "type": "SCALAR"
        },
        {
            "bufferView": 80,
            "componentType": 5126,
            "count": 32,
            "max": [
                0.009750000201165676,
                1.0,
                0.0003000000142492354
            ],
            "min": [
                0.009449999779462814,
                0.0,
                0.0
            ],
            "name": "mesh20_coord_accessor",
            "type": "VEC3"
        },
        {
            "bufferView": 81,
            "componentType": 5126,
            "count": 32,
            "max": [
                1.0,
                -0.0,
                -1.2246468525851679e-16
            ],
            "min": [
                -6.123234262925839e-17,
                -0.0,
                -1.0
            ],
            "name": "mesh20_norm_accessor",
            "type": "VEC3"
        },
        {
            "bufferView": 82,
            "componentType": 5126,
            "count": 32,
            "max": [
                1.0,
                1.0
            ],
            "min": [
                0.0,
                0.0
            ],
            "name": "mesh20_texcoord_accessor",
            "type": "VEC2"
        },
        {
            "bufferView": 83,
            "componentType": 5125,
            "count": 90,
            "max": [
                31
            ],
            "min": [
                0
            ],
            "name": "mesh20_idx_accessor",
            "type": "SCALAR"
        },
        {
            "bufferView": 84,
            "componentType": 5126,
            "count": 4,
            "max": [
                0.009449999779462814,
                1.0,
                0.0
            ],
            "min": [
                -0.009449999779462814,
                0.0,
                0.0
            ],
            "name": "mesh21_coord_accessor",
            "type": "VEC3"
        },
        {
            "bufferView": 85,
            "componentType": 5126,
            "count": 4,
            "max": [
                0.0,
                0.0,
                -1.0
            ],
            "min": [
                0.0,
                0.0,
                -1.0
            ],
            "name": "mesh21_norm_accessor",
            "type": "VEC3"
        },
        {
            "bufferView": 86,
            "componentType": 5126,
            "count": 4,
            "max": [
                1.0,
                1.0
            ],
            "min": [
                0.0,
                0.0
            ],
            "name": "mesh21_texcoord_accessor",
            "type": "VEC2"
        },
        {
            "bufferView": 87,
            "componentType": 5125,
            "count": 6,
            "max": [
                3
            ],
            "min": [
                0
            ],
            "name": "mesh21_idx_accessor",
            "type": "SCALAR"
        },
        {
            "bufferView": 88,
            "componentType": 5126,
            "count": 32,
            "max": [
                -0.009449999779462814,
                1.0,
                0.0003000000142492354
            ],
            "min": [
                -0.009750000201165676,
                0.0,
                0.0
            ],
            "name": "mesh22_coord_accessor",
            "type": "VEC3"
        },
        {
            "bufferView": 89,
            "componentType": 5126,
            "count": 32,
            "max": [
                -6.123234262925839e-17,
                -0.0,
                0.0
            ],
            "min": [
                -1.0,
                -0.0,
                -1.0
            ],
            "name": "mesh22_norm_accessor",
            "type": "VEC3"
        },
        {
            "bufferView": 90,
            "componentType": 5126,
            "count": 32,
            "max": [
                1.0,
                1.0
            ],
            "min": [
                0.0,
                0.0
            ],
            "name": "mesh22_texcoord_accessor",
            "type": "VEC2"
        },
        {
            "bufferView": 91,
            "componentType": 5125,
            "count": 90,
            "max": [
                31
            ],
            "min": [
                0
            ],
            "name": "mesh22_idx_accessor",
            "type": "SCALAR"
        },
        {
            "bufferView": 92,
            "componentType": 5126,
            "count": 223,
            "max": [
                0.009750000201165676,
                1.0,
                0.0065999142825603485
            ],
            "min": [
                -0.009750000201165676,
                1.0,
                0.0
            ],
            "name": "mesh23_coord_accessor",
            "type": "VEC3"
        },
        {
            "bufferView": 93,
            "componentType": 5126,
            "count": 223,
            "max": [
                0.0,
                1.0,
                0.0
            ],
            "min": [
                0.0,
                1.0,
                0.0
            ],
            "name": "mesh23_norm_accessor",
            "type": "VEC3"
        },
        {
            "bufferView": 94,
            "componentType": 5126,
            "count": 223,
            "max": [
                1.0,
                1.0
            ],
            "min": [
                0.0,
                0.0
            ],
            "name": "mesh23_texcoord_accessor",
            "type": "VEC2"
        },
        {
            "bufferView": 95,
            "componentType": 5125,
            "count": 663,
            "max": [
                222
            ],
            "min": [
                0
            ],
            "name": "mesh23_idx_accessor",
            "type": "SCALAR"
        },
        {
            "bufferView": 96,
            "componentType": 5126,
            "count": 223,
            "max": [
                0.009750000201165676,
                0.0,
                0.0065999142825603485
            ],
            "min": [
                -0.009750000201165676,
                0.0,
                0.0
            ],
            "name": "mesh24_coord_accessor",
            "type": "VEC3"
        },
        {
            "bufferView": 97,
            "componentType": 5126,
            "count": 223,
            "max": [
                -0.0,
                -1.0,
                -0.0
            ],
            "min": [
                -0.0,
                -1.0,
                -0.0
            ],
            "name": "mesh24_norm_accessor",
            "type": "VEC3"
        },
        {
            "bufferView": 98,
            "componentType": 5126,
            "count": 223,
            "max": [
                1.0,
                1.0
            ],
            "min": [
                0.0,
                0.0
            ],
            "name": "mesh24_texcoord_accessor",
            "type": "VEC2"
        },
        {
            "bufferView": 99,
            "componentType": 5125,
            "count": 663,
            "max": [
                222
            ],
            "min": [
                0
            ],
            "name": "mesh24_idx_accessor",
            "type": "SCALAR"
        },
        {
            "bufferView": 100,
            "componentType": 5126,
            "count": 4,
            "max": [
                -0.009750000201165676,
                1.0,
                0.002099999925121665
            ],
            "min": [
                -0.009750000201165676,
                0.0,
                0.0003000000142492354
            ],
            "name": "mesh25_coord_accessor",
            "type": "VEC3"
        },
        {
            "bufferView": 101,
            "componentType": 5126,
            "count": 4,
            "max": [
                -1.0,
                -0.0,
                -0.0
            ],
            "min": [
                -1.0,
                -0.0,
                -0.0
            ],
            "name": "mesh25_norm_accessor",
            "type": "VEC3"
        },
        {
            "bufferView": 102,
            "componentType": 5126,
            "count": 4,
            "max": [
                1.0,
                1.0
            ],
            "min": [
                0.0,
                0.0
            ],
            "name": "mesh25_texcoord_accessor",
            "type": "VEC2"
        },
        {
            "bufferView": 103,
            "componentType": 5125,
            "count": 6,
            "max": [
                3
            ],
            "min": [
                0
            ],
            "name": "mesh25_idx_accessor",
            "type": "SCALAR"
        },
        {
            "bufferView": 104,
            "componentType": 5126,
            "count": 32,
            "max": [
                -0.009449999779462814,
                1.0,
                0.002400000113993883
            ],
            "min": [
                -0.009750000201165676,
                0.0,
                0.002099999925121665
            ],
            "name": "mesh26_coord_accessor",
            "type": "VEC3"
        },
        {
            "bufferView": 105,
            "componentType": 5126,
            "count": 32,
            "max": [
                1.8369701465288538e-16,
                0.0,
                1.0
            ],
            "min": [
                -1.0,
                0.0,
                2.4492937051703357e-16
            ],
            "name": "mesh26_norm_accessor",
            "type": "VEC3"
        },
        {
            "bufferView": 106,
            "componentType": 5126,
            "count": 32,
            "max": [
                1.0,
                1.0
            ],
            "min": [
                0.0,
                0.0
            ],
            "name": "mesh26_texcoord_accessor",
            "type": "VEC2"
        },
        {
            "bufferView": 107,
            "componentType": 5125,
            "count": 90,
            "max": [
                31
            ],
            "min": [
                0
            ],
            "name": "mesh26_idx_accessor",
            "type": "SCALAR"
        },
        {
            "bufferView": 108,
            "componentType": 5126,
            "count": 4,
            "max": [
                -0.007400000002235174,
                1.0,
                0.002400000113993883
            ],
            "min": [
                -0.009449999779462814,
                0.0,
                0.002400000113993883
            ],
            "name": "mesh27_coord_accessor",
            "type": "VEC3"
        },
        {
            "bufferView": 109,
            "componentType": 5126,
            "count": 4,
            "max": [
                2.1155164018378384e-16,
                -0.0,
                1.0
            ],
            "min": [
                2.1155164018378384e-16,
                -0.0,
                1.0
            ],
            "name": "mesh27_norm_accessor",
            "type": "VEC3"
        },
        {
            "bufferView": 110,
            "componentType": 5126,
            "count": 4,
            "max": [
                1.0,
                1.0
            ],
            "min": [
                0.0,
                0.0
            ],
            "name": "mesh27_texcoord_accessor",
            "type": "VEC2"
        },
        {
            "bufferView": 111,
            "componentType": 5125,
            "count": 6,
            "max": [
                3
            ],
            "min": [
                0
            ],
            "name": "mesh27_idx_accessor",
            "type": "SCALAR"
        }
    ],
    "asset": {
        "generator": "ONSHAPE BY PTC INC, 1.201",
        "version": "2.0"
    },
    "bufferViews": [
        {
            "buffer": 0,
            "byteLength": 384,
            "name": "mesh0_coord_bufferView",
            "target": 34962
        },
        {
            "buffer": 0,
            "byteLength": 384,
            "byteOffset": 384,
            "name": "mesh0_norm_bufferView",
            "target": 34962
        },
        {
            "buffer": 0,
            "byteLength": 256,
            "byteOffset": 768,
            "name": "mesh0_texcoord_bufferView",
            "target": 34962
        },
        {
            "buffer": 0,
            "byteLength": 360,
            "byteOffset": 1024,
            "name": "mesh0_idx_bufferView",
            "target": 34963
        },
        {
            "buffer": 0,
            "byteLength": 48,
            "byteOffset": 1384,
            "name": "mesh1_coord_bufferView",
            "target": 34962
        },
        {
            "buffer": 0,
            "byteLength": 48,
            "byteOffset": 1432,
            "name": "mesh1_norm_bufferView",
            "target": 34962
        },
        {
            "buffer": 0,
            "byteLength": 32,
            "byteOffset": 1480,
            "name": "mesh1_texcoord_bufferView",
            "target": 34962
        },
        {
            "buffer": 0,
            "byteLength": 24,
            "byteOffset": 1512,
            "name": "mesh1_idx_bufferView",
            "target": 34963
        },
        {
            "buffer": 0,
            "byteLength": 48,
            "byteOffset": 1536,
            "name": "mesh2_coord_bufferView",
            "target": 34962
        },
        {
            "buffer": 0,
            "byteLength": 48,
            "byteOffset": 1584,
            "name": "mesh2_norm_bufferView",
            "target": 34962
        },
        {
            "buffer": 0,
            "byteLength": 32,
            "byteOffset": 1632,
            "name": "mesh2_texcoord_bufferView",
            "target": 34962
        },
        {
            "buffer": 0,
            "byteLength": 24,
            "byteOffset": 1664,
            "name": "mesh2_idx_bufferView",
            "target": 34963
        },
        {
            "buffer": 0,
            "byteLength": 600,
            "byteOffset": 1688,
            "name": "mesh3_coord_bufferView",
            "target": 34962
        },
        {
            "buffer": 0,
            "byteLength": 600,
            "byteOffset": 2288,
            "name": "mesh3_norm_bufferView",
            "target": 34962
        },
        {
            "buffer": 0,
            "byteLength": 400,
            "byteOffset": 2888,
            "name": "mesh3_texcoord_bufferView",
            "target": 34962
        },
        {
            "buffer": 0,
            "byteLength": 576,
            "byteOffset": 3288,
            "name": "mesh3_idx_bufferView",
            "target": 34963
        },
        {
            "buffer": 0,
            "byteLength": 48,
            "byteOffset": 3864,
            "name": "mesh4_coord_bufferView",
            "target": 34962
        },
        {
            "buffer": 0,
            "byteLength": 48,
            "byteOffset": 3912,
            "name": "mesh4_norm_bufferView",
            "target": 34962
        },
        {
            "buffer": 0,
            "byteLength": 32,
            "byteOffset": 3960,
            "name": "mesh4_texcoord_bufferView",
            "target": 34962
        },
        {
            "buffer": 0,
            "byteLength": 24,
            "byteOffset": 3992,
            "name": "mesh4_idx_bufferView",
            "target": 34963
        },
        {
            "buffer": 0,
            "byteLength": 504,
            "byteOffset": 4016,
            "name": "mesh5_coord_bufferView",
            "target": 34962
        },
        {
            "buffer": 0,
            "byteLength": 504,
            "byteOffset": 4520,
            "name": "mesh5_norm_bufferView",
            "target": 34962
        },
        {
            "buffer": 0,
            "byteLength": 336,
            "byteOffset": 5024,
            "name": "mesh5_texcoord_bufferView",
            "target": 34962
        },
        {
            "buffer": 0,
            "byteLength": 480,
            "byteOffset": 5360,
            "name": "mesh5_idx_bufferView",
            "target": 34963
        },
        {
            "buffer": 0,
            "byteLength": 48,
            "byteOffset": 5840,
            "name": "mesh6_coord_bufferView",
            "target": 34962
        },
        {
            "buffer": 0,
            "byteLength": 48,
            "byteOffset": 5888,
            "name": "mesh6_norm_bufferView",
            "target": 34962
        },
        {
            "buffer": 0,
            "byteLength": 32,
            "byteOffset": 5936,
            "name": "mesh6_texcoord_bufferView",
            "target": 34962
        },
        {
            "buffer": 0,
            "byteLength": 24,
            "byteOffset": 5968,
            "name": "mesh6_idx_bufferView",
            "target": 34963
        },
        {
            "buffer": 0,
            "byteLength": 384,
            "byteOffset": 5992,
            "name": "mesh7_coord_bufferView",
            "target": 34962
        },
        {
            "buffer": 0,
            "byteLength": 384,
            "byteOffset": 6376,
            "name": "mesh7_norm_bufferView",
            "target": 34962
        },
        {
            "buffer": 0,
            "byteLength": 256,
            "byteOffset": 6760,
            "name": "mesh7_texcoord_bufferView",
            "target": 34962
        },
        {
            "buffer": 0,
            "byteLength": 360,
            "byteOffset": 7016,
            "name": "mesh7_idx_bufferView",
            "target": 34963
        },
        {
            "buffer": 0,
            "byteLength": 48,
            "byteOffset": 7376,
            "name": "mesh8_coord_bufferView",
            "target": 34962
        },
        {
            "buffer": 0,
            "byteLength": 48,
            "byteOffset": 7424,
            "name": "mesh8_norm_bufferView",
            "target": 34962
        },
        {
            "buffer": 0,
            "byteLength": 32,
            "byteOffset": 7472,
            "name": "mesh8_texcoord_bufferView",
            "target": 34962
        },
        {
            "buffer": 0,
            "byteLength": 24,
            "byteOffset": 7504,
            "name": "mesh8_idx_bufferView",
            "target": 34963
        },
        {
            "buffer": 0,
            "byteLength": 384,
            "byteOffset": 7528,
            "name": "mesh9_coord_bufferView",
            "target": 34962
        },
        {
            "buffer": 0,
            "byteLength": 384,
            "byteOffset": 7912,
            "name": "mesh9_norm_bufferView",
            "target": 34962
        },
        {
            "buffer": 0,
            "byteLength": 256,
            "byteOffset": 8296,
            "name": "mesh9_texcoord_bufferView",
            "target": 34962
        },
        {
            "buffer": 0,
            "byteLength": 360,
            "byteOffset": 8552,
            "name": "mesh9_idx_bufferView",
            "target": 34963
        },
        {
            "buffer": 0,
            "byteLength": 48,
            "byteOffset": 8912,
            "name": "mesh10_coord_bufferView",
            "target": 34962
        },
        {
            "buffer": 0,
            "byteLength": 48,
            "byteOffset": 8960,
            "name": "mesh10_norm_bufferView",
            "target": 34962
        },
        {
            "buffer": 0,
            "byteLength": 32,
            "byteOffset": 9008,
            "name": "mesh10_texcoord_bufferView",
            "target": 34962
        },
        {
            "buffer": 0,
            "byteLength": 24,
            "byteOffset": 9040,
            "name": "mesh10_idx_bufferView",
            "target": 34963
        },
        {
            "buffer": 0,
            "byteLength": 504,
            "byteOffset": 9064,
            "name": "mesh11_coord_bufferView",
            "target": 34962
        },
        {
            "buffer": 0,
            "byteLength": 504,
            "byteOffset": 9568,
            "name": "mesh11_norm_bufferView",
            "target": 34962
        },
        {
            "buffer": 0,
            "byteLength": 336,
            "byteOffset": 10072,
            "name": "mesh11_texcoord_bufferView",
            "target": 34962
        },
        {
            "buffer": 0,
            "byteLength": 480,
            "byteOffset": 10408,
            "name": "mesh11_idx_bufferView",
            "target": 34963
        },
        {
            "buffer": 0,
            "byteLength": 96,
            "byteOffset": 10888,
            "name": "mesh12_coord_bufferView",
            "target": 34962
        },
        {
            "buffer": 0,
            "byteLength": 96,
            "byteOffset": 10984,
            "name": "mesh12_norm_bufferView",
            "target": 34962
        },
        {
            "buffer": 0,
            "byteLength": 64,
            "byteOffset": 11080,
            "name": "mesh12_texcoord_bufferView",
            "target": 34962
        },
        {
            "buffer": 0,
            "byteLength": 72,
            "byteOffset": 11144,
            "name": "mesh12_idx_bufferView",
            "target": 34963
        },
        {
            "buffer": 0,
            "byteLength": 1824,
            "byteOffset": 11216,
            "name": "mesh13_coord_bufferView",
            "target": 34962
        },
        {
            "buffer": 0,
            "byteLength": 1824,
            "byteOffset": 13040,
            "name": "mesh13_norm_bufferView",
            "target": 34962
        },
        {
            "buffer": 0,
            "byteLength": 1216,
            "byteOffset": 14864,
            "name": "mesh13_texcoord_bufferView",
            "target": 34962
        },
        {
            "buffer": 0,
            "byteLength": 2904,
            "byteOffset": 16080,
            "name": "mesh13_idx_bufferView",
            "target": 34963
        },
        {
            "buffer": 0,
            "byteLength": 96,
            "byteOffset": 18984,
            "name": "mesh14_coord_bufferView",
            "target": 34962
        },
        {
            "buffer": 0,
            "byteLength": 96,
            "byteOffset": 19080,
            "name": "mesh14_norm_bufferView",
            "target": 34962
        },
        {
            "buffer": 0,
            "byteLength": 64,
            "byteOffset": 19176,
            "name": "mesh14_texcoord_bufferView",
            "target": 34962
        },
        {
            "buffer": 0,
            "byteLength": 72,
            "byteOffset": 19240,
            "name": "mesh14_idx_bufferView",
            "target": 34963
        },
        {
            "buffer": 0,
            "byteLength": 48,
            "byteOffset": 19312,
            "name": "mesh15_coord_bufferView",
            "target": 34962
        },
        {
            "buffer": 0,
            "byteLength": 48,
            "byteOffset": 19360,
            "name": "mesh15_norm_bufferView",
            "target": 34962
        },
        {
            "buffer": 0,
            "byteLength": 32,
            "byteOffset": 19408,
            "name": "mesh15_texcoord_bufferView",
            "target": 34962
        },
        {
            "buffer": 0,
            "byteLength": 24,
            "byteOffset": 19440,
            "name": "mesh15_idx_bufferView",
            "target": 34963
        },
        {
            "buffer": 0,
            "byteLength": 384,
            "byteOffset": 19464,
            "name": "mesh16_coord_bufferView",
            "target": 34962
        },
        {
            "buffer": 0,
            "byteLength": 384,
            "byteOffset": 19848,
            "name": "mesh16_norm_bufferView",
            "target": 34962
        },
        {
            "buffer": 0,
            "byteLength": 256,
            "byteOffset": 20232,
            "name": "mesh16_texcoord_bufferView",
            "target": 34962
        },
        {
            "buffer": 0,
            "byteLength": 360,
            "byteOffset": 20488,
            "name": "mesh16_idx_bufferView",
            "target": 34963
        },
        {
            "buffer": 0,
            "byteLength": 48,
            "byteOffset": 20848,
            "name": "mesh17_coord_bufferView",
            "target": 34962
        },
        {
            "buffer": 0,
            "byteLength": 48,
            "byteOffset": 20896,
            "name": "mesh17_norm_bufferView",
            "target": 34962
        },
        {
            "buffer": 0,
            "byteLength": 32,
            "byteOffset": 20944,
            "name": "mesh17_texcoord_bufferView",
            "target": 34962
        },
        {
            "buffer": 0,
            "byteLength": 24,
            "byteOffset": 20976,
            "name": "mesh17_idx_bufferView",
            "target": 34963
        },
        {
            "buffer": 0,
            "byteLength": 384,
            "byteOffset": 21000,
            "name": "mesh18_coord_bufferView",
            "target": 34962
        },
        {
            "buffer": 0,
            "byteLength": 384,
            "byteOffset": 21384,
            "name": "mesh18_norm_bufferView",
            "target": 34962
        },
        {
            "buffer": 0,
            "byteLength": 256,
            "byteOffset": 21768,
            "name": "mesh18_texcoord_bufferView",
            "target": 34962
        },
        {
            "buffer": 0,
            "byteLength": 360,
            "byteOffset": 22024,
            "name": "mesh18_idx_bufferView",
            "target": 34963
        },
        {
            "buffer": 0,
            "byteLength": 48,
            "byteOffset": 22384,
            "name": "mesh19_coord_bufferView",
            "target": 34962
        },
        {
            "buffer": 0,
            "byteLength": 48,
            "byteOffset": 22432,
            "name": "mesh19_norm_bufferView",
            "target": 34962
        },
        {
            "buffer": 0,
            "byteLength": 32,
            "byteOffset": 22480,
            "name": "mesh19_texcoord_bufferView",
            "target": 34962
        },
        {
            "buffer": 0,
            "byteLength": 24,
            "byteOffset": 22512,
            "name": "mesh19_idx_bufferView",
            "target": 34963
        },
        {
            "buffer": 0,
            "byteLength": 384,
            "byteOffset": 22536,
            "name": "mesh20_coord_bufferView",
            "target": 34962
        },
        {
            "buffer": 0,
            "byteLength": 384,
            "byteOffset": 22920,
            "name": "mesh20_norm_bufferView",
            "target": 34962
        },
        {
            "buffer": 0,
            "byteLength": 256,
            "byteOffset": 23304,
            "name": "mesh20_texcoord_bufferView",
            "target": 34962
        },
        {
            "buffer": 0,
            "byteLength": 360,
            "byteOffset": 23560,
            "name": "mesh20_idx_bufferView",
            "target": 34963
        },
        {
            "buffer": 0,
            "byteLength": 48,
            "byteOffset": 23920,
            "name": "mesh21_coord_bufferView",
            "target": 34962
        },
        {
            "buffer": 0,
            "byteLength": 48,
            "byteOffset": 23968,
            "name": "mesh21_norm_bufferView",
            "target": 34962
        },
        {
            "buffer": 0,
            "byteLength": 32,
            "byteOffset": 24016,
            "name": "mesh21_texcoord_bufferView",
            "target": 34962
        },
        {
            "buffer": 0,
            "byteLength": 24,
            "byteOffset": 24048,
            "name": "mesh21_idx_bufferView",
            "target": 34963
        },
        {
            "buffer": 0,
            "byteLength": 384,
            "byteOffset": 24072,
            "name": "mesh22_coord_bufferView",
            "target": 34962
        },
        {
            "buffer": 0,
            "byteLength": 384,
            "byteOffset": 24456,
            "name": "mesh22_norm_bufferView",
            "target": 34962
        },
        {
            "buffer": 0,
            "byteLength": 256,
            "byteOffset": 24840,
            "name": "mesh22_texcoord_bufferView",
            "target": 34962
        },
        {
            "buffer": 0,
            "byteLength": 360,
            "byteOffset": 25096,
            "name": "mesh22_idx_bufferView",
            "target": 34963
        },
        {
            "buffer": 0,
            "byteLength": 2676,
            "byteOffset": 25456,
            "name": "mesh23_coord_bufferView",
            "target": 34962
        },
        {
            "buffer": 0,
            "byteLength": 2676,
            "byteOffset": 28132,
            "name": "mesh23_norm_bufferView",
            "target": 34962
        },
        {
            "buffer": 0,
            "byteLength": 1784,
            "byteOffset": 30808,
            "name": "mesh23_texcoord_bufferView",
            "target": 34962
        },
        {
            "buffer": 0,
            "byteLength": 2652,
            "byteOffset": 32592,
            "name": "mesh23_idx_bufferView",
            "target": 34963
        },
        {
            "buffer": 0,
            "byteLength": 2676,
            "byteOffset": 35244,
            "name": "mesh24_coord_bufferView",
            "target": 34962
        },
        {
            "buffer": 0,
            "byteLength": 2676,
            "byteOffset": 37920,
            "name": "mesh24_norm_bufferView",
            "target": 34962
        },
        {
            "buffer": 0,
            "byteLength": 1784,
            "byteOffset": 40596,
            "name": "mesh24_texcoord_bufferView",
            "target": 34962
        },
        {
            "buffer": 0,
            "byteLength": 2652,
            "byteOffset": 42380,
            "name": "mesh24_idx_bufferView",
            "target": 34963
        },
        {
            "buffer": 0,
            "byteLength": 48,
            "byteOffset": 45032,
            "name": "mesh25_coord_bufferView",
            "target": 34962
        },
        {
            "buffer": 0,
            "byteLength": 48,
            "byteOffset": 45080,
            "name": "mesh25_norm_bufferView",
            "target": 34962
        },
        {
            "buffer": 0,
            "byteLength": 32,
            "byteOffset": 45128,
            "name": "mesh25_texcoord_bufferView",
            "target": 34962
        },
        {
            "buffer": 0,
            "byteLength": 24,
            "byteOffset": 45160,
            "name": "mesh25_idx_bufferView",
            "target": 34963
        },
        {
            "buffer": 0,
            "byteLength": 384,
            "byteOffset": 45184,
            "name": "mesh26_coord_bufferView",
            "target": 34962
        },
        {
            "buffer": 0,
            "byteLength": 384,
            "byteOffset": 45568,
            "name": "mesh26_norm_bufferView",
            "target": 34962
        },
        {
            "buffer": 0,
            "byteLength": 256,
            "byteOffset": 45952,
            "name": "mesh26_texcoord_bufferView",
            "target": 34962
        },
        {
            "buffer": 0,
            "byteLength": 360,
            "byteOffset": 46208,
            "name": "mesh26_idx_bufferView",
            "target": 34963
        },
        {
            "buffer": 0,
            "byteLength": 48,
            "byteOffset": 46568,
            "name": "mesh27_coord_bufferView",
            "target": 34962
        },
        {
            "buffer": 0,
            "byteLength": 48,
            "byteOffset": 46616,
            "name": "mesh27_norm_bufferView",
            "target": 34962
        },
        {
            "buffer": 0,
            "byteLength": 32,
            "byteOffset": 46664,
            "name": "mesh27_texcoord_bufferView",
            "target": 34962
        },
        {
            "buffer": 0,
            "byteLength": 24,
            "byteOffset": 46696,
            "name": "mesh27_idx_bufferView",
            "target": 34963
        }
    ],
    "buffers": [
        {
            "byteLength": 46720,
            "name": "Total_buffer",
            "uri": "data:application/octet-stream;base64,"
        }
    ],
    "extensionsUsed": [
        "PTC_onshape_metadata"
    ],
    "materials": [
        {
            "doubleSided": true,
            "name": "0.800000_0.800000_0.800000_0.000000_0.000000",
            "pbrMetallicRoughness": {
                "baseColorFactor": [
                    0.800000011920929,
                    0.800000011920929,
                    0.800000011920929,
                    1.0
                ],
                "metallicFactor": 0.0
            }
        }
    ],
    "meshes": [
        {
            "name": "mesh0_mesh",
            "primitives": [
                {
                    "attributes": {
                        "NORMAL": 1,
                        "POSITION": 0,
                        "TEXCOORD_0": 2
                    },
                    "indices": 3,
                    "material": 0
                },
                {
                    "attributes": {
                        "NORMAL": 5,
                        "POSITION": 4,
                        "TEXCOORD_0": 6
                    },
                    "indices": 7,
                    "material": 0
                },
                {
                    "attributes": {
                        "NORMAL": 9,
                        "POSITION": 8,
                        "TEXCOORD_0": 10
                    },
                    "indices": 11,
                    "material": 0
                },
                {
                    "attributes": {
                        "NORMAL": 13,
                        "POSITION": 12,
                        "TEXCOORD_0": 14
                    },
                    "indices": 15,
                    "material": 0
                },
                {
                    "attributes": {
                        "NORMAL": 17,
                        "POSITION": 16,
                        "TEXCOORD_0": 18
                    },
                    "indices": 19,
                    "material": 0
                },
                {
                    "attributes": {
                        "NORMAL": 21,
                        "POSITION": 20,
                        "TEXCOORD_0": 22
                    },
                    "indices": 23,
                    "material": 0
                },
                {
                    "attributes": {
                        "NORMAL": 25,
                        "POSITION": 24,
                        "TEXCOORD_0": 26
                    },
                    "indices": 27,
                    "material": 0
                },
                {
                    "attributes": {
                        "NORMAL": 29,
                        "POSITION": 28,
                        "TEXCOORD_0": 30
                    },
                    "indices": 31,
                    "material": 0
                },
                {
                    "attributes": {
                        "NORMAL": 33,
                        "POSITION": 32,
                        "TEXCOORD_0": 34
                    },
                    "indices": 35,
                    "material": 0
                },
                {
                    "attributes": {
                        "NORMAL": 37,
                        "POSITION": 36,
                        "TEXCOORD_0": 38
                    },
                    "indices": 39,
                    "material": 0
                },
                {
                    "attributes": {
                        "NORMAL": 41,
                        "POSITION": 40,
                        "TEXCOORD_0": 42
                    },
                    "indices": 43,
                    "material": 0
                },
                {
                    "attributes": {
                        "NORMAL": 45,
                        "POSITION": 44,
                        "TEXCOORD_0": 46
                    },
                    "indices": 47,
                    "material": 0
                },
                {
                    "attributes": {
                        "NORMAL": 49,
                        "POSITION": 48,
                        "TEXCOORD_0": 50
                    },
                    "indices": 51,
                    "material": 0
                },
                {
                    "attributes": {
                        "NORMAL": 53,
                        "POSITION": 52,
                        "TEXCOORD_0": 54
                    },
                    "indices": 55,
                    "material": 0
                },
                {
                    "attributes": {
                        "NORMAL": 57,
                        "POSITION": 56,
                        "TEXCOORD_0": 58
                    },
                    "indices": 59,
                    "material": 0
                },
                {
                    "attributes": {
                        "NORMAL": 61,
                        "POSITION": 60,
                        "TEXCOORD_0": 62
                    },
                    "indices": 63,
                    "material": 0
                },
                {
                    "attributes": {
                        "NORMAL": 65,
                        "POSITION": 64,
                        "TEXCOORD_0": 66
                    },
                    "indices": 67,
                    "material": 0
                },
                {
                    "attributes": {
                        "NORMAL": 69,
                        "POSITION": 68,
                        "TEXCOORD_0": 70
                    },
                    "indices": 71,
                    "material": 0
                },
                {
                    "attributes": {
                        "NORMAL": 73,
                        "POSITION": 72,
                        "TEXCOORD_0": 74
                    },
                    "indices": 75,
                    "material": 0
                },
                {
                    "attributes": {
                        "NORMAL": 77,
                        "POSITION": 76,
                        "TEXCOORD_0": 78
                    },
                    "indices": 79,
                    "material": 0
                },
                {
                    "attributes": {
                        "NORMAL": 81,
                        "POSITION": 80,
                        "TEXCOORD_0": 82
                    },
                    "indices": 83,
                    "material": 0
                },
                {
                    "attributes": {
                        "NORMAL": 85,
                        "POSITION": 84,
                        "TEXCOORD_0": 86
                    },
                    "indices": 87,
                    "material": 0
                },
                {
                    "attributes": {
                        "NORMAL": 89,
                        "POSITION": 88,
                        "TEXCOORD_0": 90
                    },
                    "indices": 91,
                    "material": 0
                },
                {
                    "attributes": {
                        "NORMAL": 93,
                        "POSITION": 92,
                        "TEXCOORD_0": 94
                    },
                    "indices": 95,
                    "material": 0
                },
                {
                    "attributes": {
                        "NORMAL": 97,
                        "POSITION": 96,
                        "TEXCOORD_0": 98
                    },
                    "indices": 99,
                    "material": 0
                },
                {
                    "attributes": {
                        "NORMAL": 101,
                        "POSITION": 100,
                        "TEXCOORD_0": 102
                    },
                    "indices": 103,
                    "material": 0
                },
                {
                    "attributes": {
                        "NORMAL": 105,
                        "POSITION": 104,
                        "TEXCOORD_0": 106
                    },
                    "indices": 107,
                    "material": 0
                },
                {
                    "attributes": {
                        "NORMAL": 109,
                        "POSITION": 108,
                        "TEXCOORD_0": 110
                    },
                    "indices": 111,
                    "material": 0
                }
            ]
        }
    ],
    "nodes": [
        {
            "extensions": {
                "PTC_onshape_metadata": {
                    "entity_type": "Body",
                    "id": [
                        "JHD"
                    ]
                }
            },
            "mesh": 0,
            "name": "Clipin"
        }
    ],
    "scene": 0,
    "scenes": [
        {
            "name": "Root",
            "nodes": [
                0
            ]
        }
    ]
}